<mxfile host="app.diagrams.net" agent="Mozilla/5.0 (Macintosh; Intel Mac OS X 10_15_7) AppleWebKit/537.36 (KHTML, like Gecko) Chrome/136.0.0.0 Safari/537.36" version="27.0.6">
  <diagram name="Page-1" id="8zf7ixl62vUncIlSJN14">
    <mxGraphModel dx="1404" dy="535" grid="1" gridSize="10" guides="1" tooltips="1" connect="1" arrows="1" fold="1" page="1" pageScale="1" pageWidth="827" pageHeight="1169" math="0" shadow="0">
      <root>
        <mxCell id="0" />
        <mxCell id="1" parent="0" />
        <mxCell id="S9YEt4T9Fx8UtY1OD3hM-57" style="edgeStyle=orthogonalEdgeStyle;rounded=0;orthogonalLoop=1;jettySize=auto;html=1;entryX=0;entryY=0.5;entryDx=0;entryDy=0;" parent="1" source="S9YEt4T9Fx8UtY1OD3hM-1" target="S9YEt4T9Fx8UtY1OD3hM-43" edge="1">
          <mxGeometry relative="1" as="geometry" />
        </mxCell>
        <mxCell id="S9YEt4T9Fx8UtY1OD3hM-1" value="leave_early_request" style="swimlane;fontStyle=2;align=center;verticalAlign=top;childLayout=stackLayout;horizontal=1;startSize=26;horizontalStack=0;resizeParent=1;resizeLast=0;collapsible=1;marginBottom=0;rounded=0;shadow=0;strokeWidth=1;" parent="1" vertex="1">
          <mxGeometry x="120" y="40" width="160" height="394" as="geometry">
            <mxRectangle x="230" y="140" width="160" height="26" as="alternateBounds" />
          </mxGeometry>
        </mxCell>
        <mxCell id="S9YEt4T9Fx8UtY1OD3hM-2" value="id (bigint)  " style="text;align=left;verticalAlign=top;spacingLeft=4;spacingRight=4;overflow=hidden;rotatable=0;points=[[0,0.5],[1,0.5]];portConstraint=eastwest;" parent="S9YEt4T9Fx8UtY1OD3hM-1" vertex="1">
          <mxGeometry y="26" width="160" height="26" as="geometry" />
        </mxCell>
        <mxCell id="XApq--l90MngrBawVmHC-1" value="work_id (bigint)" style="text;align=left;verticalAlign=top;spacingLeft=4;spacingRight=4;overflow=hidden;rotatable=0;points=[[0,0.5],[1,0.5]];portConstraint=eastwest;" vertex="1" parent="S9YEt4T9Fx8UtY1OD3hM-1">
          <mxGeometry y="52" width="160" height="26" as="geometry" />
        </mxCell>
        <mxCell id="S9YEt4T9Fx8UtY1OD3hM-3" value="annual_leave_id (bigint)&#xa;" style="text;align=left;verticalAlign=top;spacingLeft=4;spacingRight=4;overflow=hidden;rotatable=0;points=[[0,0.5],[1,0.5]];portConstraint=eastwest;rounded=0;shadow=0;html=0;" parent="S9YEt4T9Fx8UtY1OD3hM-1" vertex="1">
          <mxGeometry y="78" width="160" height="28" as="geometry" />
        </mxCell>
        <mxCell id="S9YEt4T9Fx8UtY1OD3hM-4" value="company_id (bigint)" style="text;align=left;verticalAlign=top;spacingLeft=4;spacingRight=4;overflow=hidden;rotatable=0;points=[[0,0.5],[1,0.5]];portConstraint=eastwest;rounded=0;shadow=0;html=0;" parent="S9YEt4T9Fx8UtY1OD3hM-1" vertex="1">
          <mxGeometry y="106" width="160" height="22" as="geometry" />
        </mxCell>
        <mxCell id="S9YEt4T9Fx8UtY1OD3hM-5" value="driver_id (bigint)" style="text;align=left;verticalAlign=top;spacingLeft=4;spacingRight=4;overflow=hidden;rotatable=0;points=[[0,0.5],[1,0.5]];portConstraint=eastwest;rounded=0;shadow=0;html=0;" parent="S9YEt4T9Fx8UtY1OD3hM-1" vertex="1">
          <mxGeometry y="128" width="160" height="22" as="geometry" />
        </mxCell>
        <mxCell id="S9YEt4T9Fx8UtY1OD3hM-6" value="leave_date (date)" style="text;align=left;verticalAlign=top;spacingLeft=4;spacingRight=4;overflow=hidden;rotatable=0;points=[[0,0.5],[1,0.5]];portConstraint=eastwest;rounded=0;shadow=0;html=0;" parent="S9YEt4T9Fx8UtY1OD3hM-1" vertex="1">
          <mxGeometry y="150" width="160" height="22" as="geometry" />
        </mxCell>
        <mxCell id="S9YEt4T9Fx8UtY1OD3hM-7" value="leave_time (time)" style="text;align=left;verticalAlign=top;spacingLeft=4;spacingRight=4;overflow=hidden;rotatable=0;points=[[0,0.5],[1,0.5]];portConstraint=eastwest;rounded=0;shadow=0;html=0;" parent="S9YEt4T9Fx8UtY1OD3hM-1" vertex="1">
          <mxGeometry y="172" width="160" height="22" as="geometry" />
        </mxCell>
        <mxCell id="S9YEt4T9Fx8UtY1OD3hM-8" value="reason (text)                   " style="text;align=left;verticalAlign=top;spacingLeft=4;spacingRight=4;overflow=hidden;rotatable=0;points=[[0,0.5],[1,0.5]];portConstraint=eastwest;rounded=0;shadow=0;html=0;" parent="S9YEt4T9Fx8UtY1OD3hM-1" vertex="1">
          <mxGeometry y="194" width="160" height="22" as="geometry" />
        </mxCell>
        <mxCell id="S9YEt4T9Fx8UtY1OD3hM-38" value="approval_line_num" style="text;align=left;verticalAlign=top;spacingLeft=4;spacingRight=4;overflow=hidden;rotatable=0;points=[[0,0.5],[1,0.5]];portConstraint=eastwest;rounded=0;shadow=0;html=0;" parent="S9YEt4T9Fx8UtY1OD3hM-1" vertex="1">
          <mxGeometry y="216" width="160" height="22" as="geometry" />
        </mxCell>
        <mxCell id="S9YEt4T9Fx8UtY1OD3hM-14" value="created_at (datetime)" style="text;align=left;verticalAlign=top;spacingLeft=4;spacingRight=4;overflow=hidden;rotatable=0;points=[[0,0.5],[1,0.5]];portConstraint=eastwest;rounded=0;shadow=0;html=0;" parent="S9YEt4T9Fx8UtY1OD3hM-1" vertex="1">
          <mxGeometry y="238" width="160" height="18" as="geometry" />
        </mxCell>
        <mxCell id="S9YEt4T9Fx8UtY1OD3hM-15" value="updated_at (datetime)" style="text;align=left;verticalAlign=top;spacingLeft=4;spacingRight=4;overflow=hidden;rotatable=0;points=[[0,0.5],[1,0.5]];portConstraint=eastwest;rounded=0;shadow=0;html=0;" parent="S9YEt4T9Fx8UtY1OD3hM-1" vertex="1">
          <mxGeometry y="256" width="160" height="22" as="geometry" />
        </mxCell>
        <mxCell id="S9YEt4T9Fx8UtY1OD3hM-16" value="" style="line;html=1;strokeWidth=1;align=left;verticalAlign=middle;spacingTop=-1;spacingLeft=3;spacingRight=3;rotatable=0;labelPosition=right;points=[];portConstraint=eastwest;" parent="S9YEt4T9Fx8UtY1OD3hM-1" vertex="1">
          <mxGeometry y="278" width="160" height="50" as="geometry" />
        </mxCell>
        <mxCell id="S9YEt4T9Fx8UtY1OD3hM-17" value="annual_leave" style="swimlane;fontStyle=0;align=center;verticalAlign=top;childLayout=stackLayout;horizontal=1;startSize=26;horizontalStack=0;resizeParent=1;resizeLast=0;collapsible=1;marginBottom=0;rounded=0;shadow=0;strokeWidth=1;" parent="1" vertex="1">
          <mxGeometry x="440" y="30" width="160" height="100" as="geometry">
            <mxRectangle x="550" y="140" width="160" height="26" as="alternateBounds" />
          </mxGeometry>
        </mxCell>
        <mxCell id="S9YEt4T9Fx8UtY1OD3hM-18" value="id" style="text;align=left;verticalAlign=top;spacingLeft=4;spacingRight=4;overflow=hidden;rotatable=0;points=[[0,0.5],[1,0.5]];portConstraint=eastwest;" parent="S9YEt4T9Fx8UtY1OD3hM-17" vertex="1">
          <mxGeometry y="26" width="160" height="26" as="geometry" />
        </mxCell>
        <mxCell id="S9YEt4T9Fx8UtY1OD3hM-19" value="" style="line;html=1;strokeWidth=1;align=left;verticalAlign=middle;spacingTop=-1;spacingLeft=3;spacingRight=3;rotatable=0;labelPosition=right;points=[];portConstraint=eastwest;" parent="S9YEt4T9Fx8UtY1OD3hM-17" vertex="1">
          <mxGeometry y="52" width="160" height="8" as="geometry" />
        </mxCell>
        <mxCell id="S9YEt4T9Fx8UtY1OD3hM-20" value="기존 연차 테이블" style="text;html=1;align=center;verticalAlign=middle;resizable=0;points=[];autosize=1;strokeColor=none;fillColor=none;" parent="S9YEt4T9Fx8UtY1OD3hM-17" vertex="1">
          <mxGeometry y="60" width="160" height="30" as="geometry" />
        </mxCell>
        <mxCell id="S9YEt4T9Fx8UtY1OD3hM-21" style="edgeStyle=orthogonalEdgeStyle;rounded=0;orthogonalLoop=1;jettySize=auto;html=1;entryX=1;entryY=0.5;entryDx=0;entryDy=0;" parent="1" source="S9YEt4T9Fx8UtY1OD3hM-18" target="S9YEt4T9Fx8UtY1OD3hM-3" edge="1">
          <mxGeometry relative="1" as="geometry" />
        </mxCell>
        <mxCell id="S9YEt4T9Fx8UtY1OD3hM-22" value="approval_line" style="swimlane;fontStyle=2;align=center;verticalAlign=top;childLayout=stackLayout;horizontal=1;startSize=26;horizontalStack=0;resizeParent=1;resizeLast=0;collapsible=1;marginBottom=0;rounded=0;shadow=0;strokeWidth=1;" parent="1" vertex="1">
          <mxGeometry x="640" y="120" width="160" height="394" as="geometry">
            <mxRectangle x="230" y="140" width="160" height="26" as="alternateBounds" />
          </mxGeometry>
        </mxCell>
        <mxCell id="S9YEt4T9Fx8UtY1OD3hM-23" value="id (bigint)  " style="text;align=left;verticalAlign=top;spacingLeft=4;spacingRight=4;overflow=hidden;rotatable=0;points=[[0,0.5],[1,0.5]];portConstraint=eastwest;" parent="S9YEt4T9Fx8UtY1OD3hM-22" vertex="1">
          <mxGeometry y="26" width="160" height="26" as="geometry" />
        </mxCell>
        <mxCell id="S9YEt4T9Fx8UtY1OD3hM-24" value="ref_id (bigint)" style="text;align=left;verticalAlign=top;spacingLeft=4;spacingRight=4;overflow=hidden;rotatable=0;points=[[0,0.5],[1,0.5]];portConstraint=eastwest;rounded=0;shadow=0;html=0;" parent="S9YEt4T9Fx8UtY1OD3hM-22" vertex="1">
          <mxGeometry y="52" width="160" height="28" as="geometry" />
        </mxCell>
        <mxCell id="S9YEt4T9Fx8UtY1OD3hM-25" value="approver_id (bigint)" style="text;align=left;verticalAlign=top;spacingLeft=4;spacingRight=4;overflow=hidden;rotatable=0;points=[[0,0.5],[1,0.5]];portConstraint=eastwest;rounded=0;shadow=0;html=0;" parent="S9YEt4T9Fx8UtY1OD3hM-22" vertex="1">
          <mxGeometry y="80" width="160" height="22" as="geometry" />
        </mxCell>
        <mxCell id="S9YEt4T9Fx8UtY1OD3hM-26" value="approval_order (int)" style="text;align=left;verticalAlign=top;spacingLeft=4;spacingRight=4;overflow=hidden;rotatable=0;points=[[0,0.5],[1,0.5]];portConstraint=eastwest;rounded=0;shadow=0;html=0;" parent="S9YEt4T9Fx8UtY1OD3hM-22" vertex="1">
          <mxGeometry y="102" width="160" height="22" as="geometry" />
        </mxCell>
        <mxCell id="S9YEt4T9Fx8UtY1OD3hM-27" value="status (varchar)" style="text;align=left;verticalAlign=top;spacingLeft=4;spacingRight=4;overflow=hidden;rotatable=0;points=[[0,0.5],[1,0.5]];portConstraint=eastwest;rounded=0;shadow=0;html=0;" parent="S9YEt4T9Fx8UtY1OD3hM-22" vertex="1">
          <mxGeometry y="124" width="160" height="22" as="geometry" />
        </mxCell>
        <mxCell id="S9YEt4T9Fx8UtY1OD3hM-28" value="user_role (varchar)" style="text;align=left;verticalAlign=top;spacingLeft=4;spacingRight=4;overflow=hidden;rotatable=0;points=[[0,0.5],[1,0.5]];portConstraint=eastwest;rounded=0;shadow=0;html=0;" parent="S9YEt4T9Fx8UtY1OD3hM-22" vertex="1">
          <mxGeometry y="146" width="160" height="22" as="geometry" />
        </mxCell>
        <mxCell id="S9YEt4T9Fx8UtY1OD3hM-32" value="approved_at (datetime)" style="text;align=left;verticalAlign=top;spacingLeft=4;spacingRight=4;overflow=hidden;rotatable=0;points=[[0,0.5],[1,0.5]];portConstraint=eastwest;rounded=0;shadow=0;html=0;" parent="S9YEt4T9Fx8UtY1OD3hM-22" vertex="1">
          <mxGeometry y="168" width="160" height="22" as="geometry" />
        </mxCell>
        <mxCell id="S9YEt4T9Fx8UtY1OD3hM-40" value="created_at (datetime)" style="text;align=left;verticalAlign=top;spacingLeft=4;spacingRight=4;overflow=hidden;rotatable=0;points=[[0,0.5],[1,0.5]];portConstraint=eastwest;rounded=0;shadow=0;html=0;" parent="S9YEt4T9Fx8UtY1OD3hM-22" vertex="1">
          <mxGeometry y="190" width="160" height="22" as="geometry" />
        </mxCell>
        <mxCell id="S9YEt4T9Fx8UtY1OD3hM-35" value="updated_at (datetime)" style="text;align=left;verticalAlign=top;spacingLeft=4;spacingRight=4;overflow=hidden;rotatable=0;points=[[0,0.5],[1,0.5]];portConstraint=eastwest;rounded=0;shadow=0;html=0;" parent="S9YEt4T9Fx8UtY1OD3hM-22" vertex="1">
          <mxGeometry y="212" width="160" height="22" as="geometry" />
        </mxCell>
        <mxCell id="S9YEt4T9Fx8UtY1OD3hM-36" value="" style="line;html=1;strokeWidth=1;align=left;verticalAlign=middle;spacingTop=-1;spacingLeft=3;spacingRight=3;rotatable=0;labelPosition=right;points=[];portConstraint=eastwest;" parent="S9YEt4T9Fx8UtY1OD3hM-22" vertex="1">
          <mxGeometry y="234" width="160" height="50" as="geometry" />
        </mxCell>
        <mxCell id="S9YEt4T9Fx8UtY1OD3hM-56" value="결재선 테이블&lt;div&gt;&lt;br&gt;&lt;/div&gt;" style="text;html=1;align=center;verticalAlign=middle;resizable=0;points=[];autosize=1;strokeColor=none;fillColor=none;" parent="S9YEt4T9Fx8UtY1OD3hM-22" vertex="1">
          <mxGeometry y="284" width="160" height="40" as="geometry" />
        </mxCell>
        <mxCell id="S9YEt4T9Fx8UtY1OD3hM-41" value="approval_step_template" style="swimlane;fontStyle=2;align=center;verticalAlign=top;childLayout=stackLayout;horizontal=1;startSize=26;horizontalStack=0;resizeParent=1;resizeLast=0;collapsible=1;marginBottom=0;rounded=0;shadow=0;strokeWidth=1;" parent="1" vertex="1">
          <mxGeometry x="360" y="220" width="160" height="290" as="geometry">
            <mxRectangle x="230" y="140" width="160" height="26" as="alternateBounds" />
          </mxGeometry>
        </mxCell>
        <mxCell id="S9YEt4T9Fx8UtY1OD3hM-42" value="id (bigint)  " style="text;align=left;verticalAlign=top;spacingLeft=4;spacingRight=4;overflow=hidden;rotatable=0;points=[[0,0.5],[1,0.5]];portConstraint=eastwest;" parent="S9YEt4T9Fx8UtY1OD3hM-41" vertex="1">
          <mxGeometry y="26" width="160" height="26" as="geometry" />
        </mxCell>
        <mxCell id="S9YEt4T9Fx8UtY1OD3hM-43" value="form_type (varchar)" style="text;align=left;verticalAlign=top;spacingLeft=4;spacingRight=4;overflow=hidden;rotatable=0;points=[[0,0.5],[1,0.5]];portConstraint=eastwest;rounded=0;shadow=0;html=0;" parent="S9YEt4T9Fx8UtY1OD3hM-41" vertex="1">
          <mxGeometry y="52" width="160" height="28" as="geometry" />
        </mxCell>
        <mxCell id="S9YEt4T9Fx8UtY1OD3hM-44" value="step_order (int)" style="text;align=left;verticalAlign=top;spacingLeft=4;spacingRight=4;overflow=hidden;rotatable=0;points=[[0,0.5],[1,0.5]];portConstraint=eastwest;rounded=0;shadow=0;html=0;" parent="S9YEt4T9Fx8UtY1OD3hM-41" vertex="1">
          <mxGeometry y="80" width="160" height="22" as="geometry" />
        </mxCell>
        <mxCell id="S9YEt4T9Fx8UtY1OD3hM-46" value="required_role (varchar)" style="text;align=left;verticalAlign=top;spacingLeft=4;spacingRight=4;overflow=hidden;rotatable=0;points=[[0,0.5],[1,0.5]];portConstraint=eastwest;rounded=0;shadow=0;html=0;" parent="S9YEt4T9Fx8UtY1OD3hM-41" vertex="1">
          <mxGeometry y="102" width="160" height="22" as="geometry" />
        </mxCell>
        <mxCell id="S9YEt4T9Fx8UtY1OD3hM-47" value="managed_by (bigint)" style="text;align=left;verticalAlign=top;spacingLeft=4;spacingRight=4;overflow=hidden;rotatable=0;points=[[0,0.5],[1,0.5]];portConstraint=eastwest;rounded=0;shadow=0;html=0;" parent="S9YEt4T9Fx8UtY1OD3hM-41" vertex="1">
          <mxGeometry y="124" width="160" height="22" as="geometry" />
        </mxCell>
        <mxCell id="S9YEt4T9Fx8UtY1OD3hM-49" value="created_at (datetime)" style="text;align=left;verticalAlign=top;spacingLeft=4;spacingRight=4;overflow=hidden;rotatable=0;points=[[0,0.5],[1,0.5]];portConstraint=eastwest;rounded=0;shadow=0;html=0;" parent="S9YEt4T9Fx8UtY1OD3hM-41" vertex="1">
          <mxGeometry y="146" width="160" height="22" as="geometry" />
        </mxCell>
        <mxCell id="S9YEt4T9Fx8UtY1OD3hM-50" value="updated_at (datetime)" style="text;align=left;verticalAlign=top;spacingLeft=4;spacingRight=4;overflow=hidden;rotatable=0;points=[[0,0.5],[1,0.5]];portConstraint=eastwest;rounded=0;shadow=0;html=0;" parent="S9YEt4T9Fx8UtY1OD3hM-41" vertex="1">
          <mxGeometry y="168" width="160" height="22" as="geometry" />
        </mxCell>
        <mxCell id="S9YEt4T9Fx8UtY1OD3hM-51" value="" style="line;html=1;strokeWidth=1;align=left;verticalAlign=middle;spacingTop=-1;spacingLeft=3;spacingRight=3;rotatable=0;labelPosition=right;points=[];portConstraint=eastwest;" parent="S9YEt4T9Fx8UtY1OD3hM-41" vertex="1">
          <mxGeometry y="190" width="160" height="50" as="geometry" />
        </mxCell>
        <mxCell id="S9YEt4T9Fx8UtY1OD3hM-52" value="결재선 관리 테이블" style="text;html=1;align=center;verticalAlign=middle;resizable=0;points=[];autosize=1;strokeColor=none;fillColor=none;" parent="S9YEt4T9Fx8UtY1OD3hM-41" vertex="1">
          <mxGeometry y="240" width="160" height="30" as="geometry" />
        </mxCell>
        <mxCell id="S9YEt4T9Fx8UtY1OD3hM-55" style="edgeStyle=orthogonalEdgeStyle;rounded=0;orthogonalLoop=1;jettySize=auto;html=1;entryX=0;entryY=0.5;entryDx=0;entryDy=0;" parent="1" source="S9YEt4T9Fx8UtY1OD3hM-2" target="S9YEt4T9Fx8UtY1OD3hM-24" edge="1">
          <mxGeometry relative="1" as="geometry" />
        </mxCell>
        <mxCell id="S9YEt4T9Fx8UtY1OD3hM-58" style="edgeStyle=orthogonalEdgeStyle;rounded=0;orthogonalLoop=1;jettySize=auto;html=1;entryX=0.013;entryY=0.048;entryDx=0;entryDy=0;entryPerimeter=0;" parent="1" source="S9YEt4T9Fx8UtY1OD3hM-43" target="S9YEt4T9Fx8UtY1OD3hM-22" edge="1">
          <mxGeometry relative="1" as="geometry" />
        </mxCell>
        <mxCell id="S9YEt4T9Fx8UtY1OD3hM-59" value="중도귀가 내역 테이블" style="text;html=1;align=center;verticalAlign=middle;resizable=0;points=[];autosize=1;strokeColor=none;fillColor=none;" parent="1" vertex="1">
          <mxGeometry x="140" y="358" width="120" height="30" as="geometry" />
        </mxCell>
        <mxCell id="XApq--l90MngrBawVmHC-2" value="work" style="swimlane;fontStyle=0;align=center;verticalAlign=top;childLayout=stackLayout;horizontal=1;startSize=26;horizontalStack=0;resizeParent=1;resizeLast=0;collapsible=1;marginBottom=0;rounded=0;shadow=0;strokeWidth=1;" vertex="1" parent="1">
          <mxGeometry x="630" y="30" width="160" height="100" as="geometry">
            <mxRectangle x="550" y="140" width="160" height="26" as="alternateBounds" />
          </mxGeometry>
        </mxCell>
        <mxCell id="XApq--l90MngrBawVmHC-3" value="id" style="text;align=left;verticalAlign=top;spacingLeft=4;spacingRight=4;overflow=hidden;rotatable=0;points=[[0,0.5],[1,0.5]];portConstraint=eastwest;" vertex="1" parent="XApq--l90MngrBawVmHC-2">
          <mxGeometry y="26" width="160" height="26" as="geometry" />
        </mxCell>
        <mxCell id="XApq--l90MngrBawVmHC-4" value="" style="line;html=1;strokeWidth=1;align=left;verticalAlign=middle;spacingTop=-1;spacingLeft=3;spacingRight=3;rotatable=0;labelPosition=right;points=[];portConstraint=eastwest;" vertex="1" parent="XApq--l90MngrBawVmHC-2">
          <mxGeometry y="52" width="160" height="8" as="geometry" />
        </mxCell>
        <mxCell id="XApq--l90MngrBawVmHC-5" value="기존 근무 테이블" style="text;html=1;align=center;verticalAlign=middle;resizable=0;points=[];autosize=1;strokeColor=none;fillColor=none;" vertex="1" parent="XApq--l90MngrBawVmHC-2">
          <mxGeometry y="60" width="160" height="30" as="geometry" />
        </mxCell>
        <mxCell id="XApq--l90MngrBawVmHC-11" style="edgeStyle=orthogonalEdgeStyle;rounded=0;orthogonalLoop=1;jettySize=auto;html=1;exitX=0;exitY=0.5;exitDx=0;exitDy=0;entryX=1;entryY=0.5;entryDx=0;entryDy=0;" edge="1" parent="1" source="XApq--l90MngrBawVmHC-3" target="XApq--l90MngrBawVmHC-1">
          <mxGeometry relative="1" as="geometry" />
        </mxCell>
      </root>
    </mxGraphModel>
  </diagram>
</mxfile>
